# xmcd
#
# Track frame offsets:
#	150
#	14470
#	28661
#	39823
#	64466
#	79060
#	93576
#	106907
#	120124
#	131159
#
# Disc length: 1880 seconds
#
# Revision: 1
# Processed by: cddbd v1.5.1PL0 Copyright (c) Steve Scherf et al.
# Submitted via: audiograbber 1.83.01
#
DISCID=7907560a
DTITLE=David Allan Coe - Underground Album
DYEAR=1900
DGENRE=Country
TTITLE0=Rock A Roll Fever
TTITLE1=Panheads Forever
TTITLE2=Nigger Fucker
TTITLE3=Coffee
TTITLE4=One Monkey
TTITLE5=One More Time
TTITLE6=Little Sussie Shallow Throat
TTITLE7=Pick Em, Lick Em, Stick Em
TTITLE8=Don't Bite The Dick
TTITLE9=Fuckin' In The Butt
EXTD=Adults Only - Not Recommended for Air Play, DAC records
EXTT0=
EXTT1=
EXTT2=
EXTT3=
EXTT4=
EXTT5=
EXTT6=
EXTT7=
EXTT8=
EXTT9=
PLAYORDER=
